<?xml version="1.0" encoding="utf-8" standalone="no"?>
<!DOCTYPE svg PUBLIC "-//W3C//DTD SVG 1.1//EN"
  "http://www.w3.org/Graphics/SVG/1.1/DTD/svg11.dtd">
<!-- Created with matplotlib (http://matplotlib.org/) -->
<svg height="216pt" version="1.1" viewBox="0 0 1080 216" width="1080pt" xmlns="http://www.w3.org/2000/svg" xmlns:xlink="http://www.w3.org/1999/xlink">
 <defs>
  <style type="text/css">
*{stroke-linecap:butt;stroke-linejoin:round;}
  </style>
 </defs>
 <g id="figure_1">
  <g id="patch_1">
   <path d="
M0 216
L1080 216
L1080 0
L0 0
z
" style="fill:#ffffff;"/>
  </g>
  <g id="axes_1">
   <g id="patch_2">
    <path d="
M135 189
L972 189
L972 21.6
L135 21.6
z
" style="fill:#ffffff;"/>
   </g>
   <g id="matplotlib.axis_1">
    <g id="xtick_1">
     <g id="line2d_1">
      <defs>
       <path d="
M0 0
L0 0" id="m219da94a98" style="stroke:#262626;"/>
      </defs>
      <g>
       <use style="fill:#262626;stroke:#262626;" x="135.0" xlink:href="#m219da94a98" y="189.0"/>
      </g>
     </g>
    </g>
    <g id="xtick_2">
     <g id="line2d_2">
      <g>
       <use style="fill:#262626;stroke:#262626;" x="254.571428571" xlink:href="#m219da94a98" y="189.0"/>
      </g>
     </g>
    </g>
    <g id="xtick_3">
     <g id="line2d_3">
      <g>
       <use style="fill:#262626;stroke:#262626;" x="374.142857143" xlink:href="#m219da94a98" y="189.0"/>
      </g>
     </g>
    </g>
    <g id="xtick_4">
     <g id="line2d_4">
      <g>
       <use style="fill:#262626;stroke:#262626;" x="493.714285714" xlink:href="#m219da94a98" y="189.0"/>
      </g>
     </g>
    </g>
    <g id="xtick_5">
     <g id="line2d_5">
      <g>
       <use style="fill:#262626;stroke:#262626;" x="613.285714286" xlink:href="#m219da94a98" y="189.0"/>
      </g>
     </g>
    </g>
    <g id="xtick_6">
     <g id="line2d_6">
      <g>
       <use style="fill:#262626;stroke:#262626;" x="732.857142857" xlink:href="#m219da94a98" y="189.0"/>
      </g>
     </g>
    </g>
    <g id="xtick_7">
     <g id="line2d_7">
      <g>
       <use style="fill:#262626;stroke:#262626;" x="852.428571429" xlink:href="#m219da94a98" y="189.0"/>
      </g>
     </g>
    </g>
    <g id="xtick_8">
     <g id="line2d_8">
      <g>
       <use style="fill:#262626;stroke:#262626;" x="972.0" xlink:href="#m219da94a98" y="189.0"/>
      </g>
     </g>
    </g>
   </g>
   <g id="matplotlib.axis_2">
    <g id="ytick_1">
     <g id="line2d_9">
      <g>
       <use style="fill:#262626;stroke:#262626;" x="135.0" xlink:href="#m219da94a98" y="105.3"/>
      </g>
     </g>
    </g>
   </g>
   <g id="patch_3">
    <path clip-path="url(#p0272eb7db4)" d="
M135 38.34
L928.954 38.34
L928.954 172.26
L135 172.26
z
" style="fill:#e5a29d;stroke:#ffffff;stroke-linejoin:miter;stroke-width:3;"/>
   </g>
   <g id="patch_4">
    <path clip-path="url(#p0272eb7db4)" d="
M135 38.34
L787.86 38.34
L787.86 172.26
L135 172.26
z
" style="fill:#f1cfca;stroke:#ffffff;stroke-linejoin:miter;stroke-width:3;"/>
   </g>
   <g id="patch_5">
    <path clip-path="url(#p0272eb7db4)" d="
M135 38.34
L622.851 38.34
L622.851 172.26
L135 172.26
z
" style="fill:#eaecef;stroke:#ffffff;stroke-linejoin:miter;stroke-width:3;"/>
   </g>
   <g id="patch_6">
    <path clip-path="url(#p0272eb7db4)" d="
M135 38.34
L488.931 38.34
L488.931 172.26
L135 172.26
z
" style="fill:#b6cbb6;stroke:#ffffff;stroke-linejoin:miter;stroke-width:3;"/>
   </g>
   <g id="patch_7">
    <path clip-path="url(#p0272eb7db4)" d="
M135 38.34
L345.446 38.34
L345.446 172.26
L135 172.26
z
" style="fill:#55966b;stroke:#ffffff;stroke-linejoin:miter;stroke-width:3;"/>
   </g>
   <g id="line2d_10">
    <path clip-path="url(#p0272eb7db4)" style="fill:none;stroke:#424242;stroke-linecap:round;stroke-width:3.15;"/>
   </g>
   <g id="line2d_11">
    <path clip-path="url(#p0272eb7db4)" style="fill:none;stroke:#424242;stroke-linecap:round;stroke-width:3.15;"/>
   </g>
   <g id="line2d_12">
    <path clip-path="url(#p0272eb7db4)" style="fill:none;stroke:#424242;stroke-linecap:round;stroke-width:3.15;"/>
   </g>
   <g id="line2d_13">
    <path clip-path="url(#p0272eb7db4)" style="fill:none;stroke:#424242;stroke-linecap:round;stroke-width:3.15;"/>
   </g>
   <g id="line2d_14">
    <path clip-path="url(#p0272eb7db4)" style="fill:none;stroke:#424242;stroke-linecap:round;stroke-width:3.15;"/>
   </g>
   <g id="text_1">
    <!-- 18% -->
    <defs>
     <path d="
M17.6719 38.8125
Q12.2031 40.8281 9.5625 44.5312
Q6.9375 48.25 6.9375 53.4219
Q6.9375 61.2344 12.5469 66.5469
Q18.1719 71.875 27.4844 71.875
Q36.8594 71.875 42.5781 66.4219
Q48.2969 60.9844 48.2969 53.1719
Q48.2969 48.1875 45.6719 44.5
Q43.0625 40.8281 37.75 38.8125
Q44.3438 36.6719 47.7812 31.875
Q51.2188 27.0938 51.2188 20.4531
Q51.2188 11.2812 44.7188 5.03125
Q38.2344 -1.21875 27.6406 -1.21875
Q17.0469 -1.21875 10.5469 5.04688
Q4.04688 11.3281 4.04688 20.7031
Q4.04688 27.6875 7.59375 32.3906
Q11.1406 37.1094 17.6719 38.8125
M15.9219 53.7188
Q15.9219 48.6406 19.1875 45.4062
Q22.4688 42.1875 27.6875 42.1875
Q32.7656 42.1875 36.0156 45.375
Q39.2656 48.5781 39.2656 53.2188
Q39.2656 58.0625 35.9062 61.3594
Q32.5625 64.6562 27.5938 64.6562
Q22.5625 64.6562 19.2344 61.4219
Q15.9219 58.2031 15.9219 53.7188
M13.0938 20.6562
Q13.0938 16.8906 14.875 13.375
Q16.6562 9.85938 20.1719 7.92188
Q23.6875 6 27.7344 6
Q34.0312 6 38.125 10.0469
Q42.2344 14.1094 42.2344 20.3594
Q42.2344 26.7031 38.0156 30.8594
Q33.7969 35.0156 27.4375 35.0156
Q21.2344 35.0156 17.1562 30.9062
Q13.0938 26.8125 13.0938 20.6562" id="ArialMT-38"/>
     <path d="
M37.25 0
L28.4688 0
L28.4688 56
Q25.2969 52.9844 20.1406 49.9531
Q14.9844 46.9219 10.8906 45.4062
L10.8906 53.9062
Q18.2656 57.375 23.7812 62.2969
Q29.2969 67.2344 31.5938 71.875
L37.25 71.875
z
" id="ArialMT-31"/>
     <path d="
M5.8125 54.3906
Q5.8125 62.0625 9.67188 67.4219
Q13.5312 72.7969 20.8438 72.7969
Q27.5938 72.7969 32 67.9844
Q36.4219 63.1875 36.4219 53.8594
Q36.4219 44.7812 31.9531 39.875
Q27.4844 34.9688 20.9531 34.9688
Q14.4531 34.9688 10.125 39.7969
Q5.8125 44.625 5.8125 54.3906
M21.0938 66.75
Q17.8281 66.75 15.6562 63.9062
Q13.4844 61.0781 13.4844 53.5156
Q13.4844 46.625 15.6719 43.8125
Q17.875 41.0156 21.0938 41.0156
Q24.4219 41.0156 26.5938 43.8438
Q28.7656 46.6875 28.7656 54.2031
Q28.7656 61.1406 26.5625 63.9375
Q24.3594 66.75 21.0938 66.75
M21.1406 -2.64062
L60.2969 72.7969
L67.4375 72.7969
L28.4219 -2.64062
z

M52.0938 16.7969
Q52.0938 24.5156 55.9531 29.8594
Q59.8125 35.2031 67.1875 35.2031
Q73.9219 35.2031 78.3438 30.3906
Q82.7656 25.5938 82.7656 16.2656
Q82.7656 7.17188 78.2969 2.26562
Q73.8281 -2.64062 67.2344 -2.64062
Q60.75 -2.64062 56.4219 2.21875
Q52.0938 7.07812 52.0938 16.7969
M67.4375 29.1562
Q64.1094 29.1562 61.9375 26.3125
Q59.7656 23.4844 59.7656 15.9219
Q59.7656 9.07812 61.9531 6.25
Q64.1562 3.42188 67.3906 3.42188
Q70.75 3.42188 72.9219 6.25
Q75.0938 9.07812 75.0938 16.6094
Q75.0938 23.5312 72.8906 26.3438
Q70.7031 29.1562 67.4375 29.1562" id="ArialMT-25"/>
    </defs>
    <g style="fill:#555555;" transform="translate(840.097767857 116.205)scale(0.2 -0.2)">
     <use xlink:href="#ArialMT-31"/>
     <use x="55.615234375" xlink:href="#ArialMT-38"/>
     <use x="111.23046875" xlink:href="#ArialMT-25"/>
    </g>
   </g>
   <g id="text_2">
    <!-- 21% -->
    <defs>
     <path d="
M50.3438 8.45312
L50.3438 0
L3.03125 0
Q2.9375 3.17188 4.04688 6.10938
Q5.85938 10.9375 9.82812 15.625
Q13.8125 20.3125 21.3438 26.4688
Q33.0156 36.0312 37.1094 41.625
Q41.2188 47.2188 41.2188 52.2031
Q41.2188 57.4219 37.4688 61
Q33.7344 64.5938 27.7344 64.5938
Q21.3906 64.5938 17.5781 60.7812
Q13.7656 56.9844 13.7188 50.25
L4.6875 51.1719
Q5.60938 61.2812 11.6562 66.5781
Q17.7188 71.875 27.9375 71.875
Q38.2344 71.875 44.2344 66.1562
Q50.25 60.4531 50.25 52
Q50.25 47.7031 48.4844 43.5469
Q46.7344 39.4062 42.6562 34.8125
Q38.5781 30.2188 29.1094 22.2188
Q21.1875 15.5781 18.9375 13.2031
Q16.7031 10.8438 15.2344 8.45312
z
" id="ArialMT-32"/>
    </defs>
    <g style="fill:#555555;" transform="translate(686.251026786 116.205)scale(0.2 -0.2)">
     <use xlink:href="#ArialMT-32"/>
     <use x="55.615234375" xlink:href="#ArialMT-31"/>
     <use x="111.23046875" xlink:href="#ArialMT-25"/>
    </g>
   </g>
   <g id="text_3">
    <!-- 17% -->
    <defs>
     <path d="
M4.73438 62.2031
L4.73438 70.6562
L51.0781 70.6562
L51.0781 63.8125
Q44.2344 56.5469 37.5156 44.4844
Q30.8125 32.4219 27.1562 19.6719
Q24.5156 10.6875 23.7812 0
L14.75 0
Q14.8906 8.45312 18.0625 20.4062
Q21.2344 32.375 27.1719 43.4844
Q33.1094 54.5938 39.7969 62.2031
z
" id="ArialMT-37"/>
    </defs>
    <g style="fill:#555555;" transform="translate(537.582053571 116.205)scale(0.2 -0.2)">
     <use xlink:href="#ArialMT-31"/>
     <use x="55.615234375" xlink:href="#ArialMT-37"/>
     <use x="111.23046875" xlink:href="#ArialMT-25"/>
    </g>
   </g>
   <g id="text_4">
    <!-- 18% -->
    <g style="fill:#555555;" transform="translate(398.879196429 116.205)scale(0.2 -0.2)">
     <use xlink:href="#ArialMT-31"/>
     <use x="55.615234375" xlink:href="#ArialMT-38"/>
     <use x="111.23046875" xlink:href="#ArialMT-25"/>
    </g>
   </g>
   <g id="text_5">
    <!-- 27% -->
    <g style="fill:#555555;" transform="translate(221.118169643 116.205)scale(0.2 -0.2)">
     <use xlink:href="#ArialMT-32"/>
     <use x="55.615234375" xlink:href="#ArialMT-37"/>
     <use x="111.23046875" xlink:href="#ArialMT-25"/>
    </g>
   </g>
  </g>
 </g>
 <defs>
  <clipPath id="p0272eb7db4">
   <rect height="167.4" width="837.0" x="135.0" y="21.6"/>
  </clipPath>
 </defs>
</svg>
