<?xml version="1.0" encoding="utf-8" standalone="no"?>
<!DOCTYPE svg PUBLIC "-//W3C//DTD SVG 1.1//EN"
  "http://www.w3.org/Graphics/SVG/1.1/DTD/svg11.dtd">
<!-- Created with matplotlib (http://matplotlib.org/) -->
<svg height="504pt" version="1.1" viewBox="0 0 504 504" width="504pt" xmlns="http://www.w3.org/2000/svg" xmlns:xlink="http://www.w3.org/1999/xlink">
 <defs>
  <style type="text/css">
*{stroke-linecap:butt;stroke-linejoin:round;}
  </style>
 </defs>
 <g id="figure_1">
  <g id="patch_1">
   <path d="
M0 504
L504 504
L504 0
L0 0
z
" style="fill:#ffffff;"/>
  </g>
  <g id="axes_1">
   <g id="matplotlib.axis_1"/>
   <g id="matplotlib.axis_2"/>
   <g id="patch_2">
    <path d="
M158.688 86.8571
C136.074 99.9414 116.419 117.595 100.974 138.695
C85.5289 159.796 74.6281 183.885 68.9652 209.431
C63.3023 234.977 63 261.426 68.0775 287.095
C73.155 312.764 83.5024 337.097 98.4612 358.546
C113.42 379.995 132.666 398.096 154.975 411.696
C177.284 425.296 202.173 434.101 228.057 437.55
C253.942 441 280.262 439.02 305.342 431.735
C330.422 424.451 353.72 412.02 373.752 395.235
L252.895 250.379
L158.688 86.8571
z
" style="fill:#4aa168;stroke:#ffffff;stroke-linejoin:miter;"/>
   </g>
   <g id="patch_3">
    <path d="
M381.474 389.826
C417.64 359.522 441.171 316.692 447.386 269.862
C453.6 223.031 442.056 175.527 415.05 136.804
C388.044 98.0808 347.497 70.8908 301.477 60.6454
C255.457 50.4 207.236 57.8272 166.41 81.4487
L260.616 244.971
L381.474 389.826
z
" style="fill:#f19891;stroke:#ffffff;stroke-linejoin:miter;"/>
   </g>
   <g id="text_1">
    <!-- 53% -->
    <defs>
     <path d="
M5.8125 54.3906
Q5.8125 62.0625 9.67188 67.4219
Q13.5312 72.7969 20.8438 72.7969
Q27.5938 72.7969 32 67.9844
Q36.4219 63.1875 36.4219 53.8594
Q36.4219 44.7812 31.9531 39.875
Q27.4844 34.9688 20.9531 34.9688
Q14.4531 34.9688 10.125 39.7969
Q5.8125 44.625 5.8125 54.3906
M21.0938 66.75
Q17.8281 66.75 15.6562 63.9062
Q13.4844 61.0781 13.4844 53.5156
Q13.4844 46.625 15.6719 43.8125
Q17.875 41.0156 21.0938 41.0156
Q24.4219 41.0156 26.5938 43.8438
Q28.7656 46.6875 28.7656 54.2031
Q28.7656 61.1406 26.5625 63.9375
Q24.3594 66.75 21.0938 66.75
M21.1406 -2.64062
L60.2969 72.7969
L67.4375 72.7969
L28.4219 -2.64062
z

M52.0938 16.7969
Q52.0938 24.5156 55.9531 29.8594
Q59.8125 35.2031 67.1875 35.2031
Q73.9219 35.2031 78.3438 30.3906
Q82.7656 25.5938 82.7656 16.2656
Q82.7656 7.17188 78.2969 2.26562
Q73.8281 -2.64062 67.2344 -2.64062
Q60.75 -2.64062 56.4219 2.21875
Q52.0938 7.07812 52.0938 16.7969
M67.4375 29.1562
Q64.1094 29.1562 61.9375 26.3125
Q59.7656 23.4844 59.7656 15.9219
Q59.7656 9.07812 61.9531 6.25
Q64.1562 3.42188 67.3906 3.42188
Q70.75 3.42188 72.9219 6.25
Q75.0938 9.07812 75.0938 16.6094
Q75.0938 23.5312 72.8906 26.3438
Q70.7031 29.1562 67.4375 29.1562" id="ArialMT-25"/>
     <path d="
M4.20312 18.8906
L12.9844 20.0625
Q14.5 12.5938 18.1406 9.29688
Q21.7812 6 27 6
Q33.2031 6 37.4688 10.2969
Q41.75 14.5938 41.75 20.9531
Q41.75 27 37.7969 30.9219
Q33.8438 34.8594 27.7344 34.8594
Q25.25 34.8594 21.5312 33.8906
L22.5156 41.6094
Q23.3906 41.5 23.9219 41.5
Q29.5469 41.5 34.0312 44.4219
Q38.5312 47.3594 38.5312 53.4688
Q38.5312 58.2969 35.25 61.4688
Q31.9844 64.6562 26.8125 64.6562
Q21.6875 64.6562 18.2656 61.4219
Q14.8438 58.2031 13.875 51.7656
L5.07812 53.3281
Q6.6875 62.1562 12.3906 67.0156
Q18.1094 71.875 26.6094 71.875
Q32.4688 71.875 37.3906 69.3594
Q42.3281 66.8438 44.9375 62.5
Q47.5625 58.1562 47.5625 53.2656
Q47.5625 48.6406 45.0625 44.8281
Q42.5781 41.0156 37.7031 38.7656
Q44.0469 37.3125 47.5625 32.6875
Q51.0781 28.0781 51.0781 21.1406
Q51.0781 11.7656 44.2344 5.25
Q37.4062 -1.26562 26.9531 -1.26562
Q17.5312 -1.26562 11.2969 4.34375
Q5.07812 9.96875 4.20312 18.8906" id="ArialMT-33"/>
     <path d="
M4.15625 18.75
L13.375 19.5312
Q14.4062 12.7969 18.1406 9.39062
Q21.875 6 27.1562 6
Q33.5 6 37.8906 10.7812
Q42.2812 15.5781 42.2812 23.4844
Q42.2812 31 38.0625 35.3438
Q33.8438 39.7031 27 39.7031
Q22.75 39.7031 19.3281 37.7656
Q15.9219 35.8438 13.9688 32.7656
L5.71875 33.8438
L12.6406 70.6094
L48.25 70.6094
L48.25 62.2031
L19.6719 62.2031
L15.8281 42.9688
Q22.2656 47.4688 29.3438 47.4688
Q38.7188 47.4688 45.1562 40.9688
Q51.6094 34.4688 51.6094 24.2656
Q51.6094 14.5469 45.9531 7.46875
Q39.0625 -1.21875 27.1562 -1.21875
Q17.3906 -1.21875 11.2031 4.25
Q5.03125 9.71875 4.15625 18.75" id="ArialMT-35"/>
    </defs>
    <g style="fill:#555555;" transform="translate(136.506062147 321.74229246)scale(0.25 -0.25)">
     <use xlink:href="#ArialMT-35"/>
     <use x="55.615234375" xlink:href="#ArialMT-33"/>
     <use x="111.23046875" xlink:href="#ArialMT-25"/>
    </g>
   </g>
   <g id="text_2">
    <!-- 47% -->
    <defs>
     <path d="
M32.3281 0
L32.3281 17.1406
L1.26562 17.1406
L1.26562 25.2031
L33.9375 71.5781
L41.1094 71.5781
L41.1094 25.2031
L50.7812 25.2031
L50.7812 17.1406
L41.1094 17.1406
L41.1094 0
z

M32.3281 25.2031
L32.3281 57.4688
L9.90625 25.2031
z
" id="ArialMT-34"/>
     <path d="
M4.73438 62.2031
L4.73438 70.6562
L51.0781 70.6562
L51.0781 63.8125
Q44.2344 56.5469 37.5156 44.4844
Q30.8125 32.4219 27.1562 19.6719
Q24.5156 10.6875 23.7812 0
L14.75 0
Q14.8906 8.45312 18.0625 20.4062
Q21.2344 32.375 27.1719 43.4844
Q33.1094 54.5938 39.7969 62.2031
z
" id="ArialMT-37"/>
    </defs>
    <g style="fill:#555555;" transform="translate(329.186671123 186.533427233)scale(0.25 -0.25)">
     <use xlink:href="#ArialMT-34"/>
     <use x="55.615234375" xlink:href="#ArialMT-37"/>
     <use x="111.23046875" xlink:href="#ArialMT-25"/>
    </g>
   </g>
  </g>
 </g>
</svg>
